<svg width="40" height="40" viewBox="0 0 40 40" fill="none" xmlns="http://www.w3.org/2000/svg">
<path fill-rule="evenodd" clip-rule="evenodd" d="M12.5 1.66675C13.4205 1.66675 14.1667 2.41294 14.1667 3.33341V5.00008H25.8334V3.33341C25.8334 2.41294 26.5796 1.66675 27.5 1.66675C28.4205 1.66675 29.1667 2.41294 29.1667 3.33341V5.04123C33.3778 5.45933 36.6667 9.01229 36.6667 13.3334V28.3334C36.6667 32.9358 32.9357 36.6667 28.3334 36.6667H11.6667C7.06434 36.6667 3.33337 32.9358 3.33337 28.3334V13.3334C3.33337 9.01229 6.62227 5.45933 10.8334 5.04123V3.33341C10.8334 2.41294 11.5796 1.66675 12.5 1.66675ZM6.95122 11.6667H33.0489C32.3625 9.72476 30.5104 8.33341 28.3334 8.33341H11.6667C9.48968 8.33341 7.63761 9.72476 6.95122 11.6667ZM33.3334 15.0001H6.66671V28.3334C6.66671 31.0948 8.90528 33.3334 11.6667 33.3334H28.3334C31.0948 33.3334 33.3334 31.0948 33.3334 28.3334V15.0001ZM10 19.1667C10 18.2463 10.7462 17.5001 11.6667 17.5001H28.3334C29.2538 17.5001 30 18.2463 30 19.1667C30 20.0872 29.2538 20.8334 28.3334 20.8334H11.6667C10.7462 20.8334 10 20.0872 10 19.1667ZM10 24.1667C10 23.2463 10.7462 22.5001 11.6667 22.5001H28.3334C29.2538 22.5001 30 23.2463 30 24.1667C30 25.0872 29.2538 25.8334 28.3334 25.8334H11.6667C10.7462 25.8334 10 25.0872 10 24.1667ZM10 29.1667C10 28.2463 10.7462 27.5001 11.6667 27.5001H28.3334C29.2538 27.5001 30 28.2463 30 29.1667C30 30.0872 29.2538 30.8334 28.3334 30.8334H11.6667C10.7462 30.8334 10 30.0872 10 29.1667Z" fill="#0F396A"/>
</svg>
