<svg width="60" height="69" viewBox="0 0 60 69" fill="none" xmlns="http://www.w3.org/2000/svg">
<path d="M49.123 24.6784C42.0119 16.538 45.7312 8.49902 48.4797 5.49707C47.6025 14.6199 54.0171 21.2281 55.2049 23.041C58.5382 28.1287 62.7487 39.8246 57.4271 50.9357C50.3689 65.6726 37.583 68.2067 30.7604 68.2457C48.9475 67.427 55.8235 51.9884 56.316 44.6199C56.5427 41.2281 56.2341 32.8188 49.123 24.6784Z" fill="url(#paint0_linear_258_881)"/>
<path d="M10.8773 24.6784C17.9884 16.538 14.2691 8.49902 11.5205 5.49707C12.3977 14.6199 5.98313 21.2281 4.79538 23.041C1.46205 28.1287 -2.74849 39.8246 2.57316 50.9357C9.63134 65.6726 22.4172 68.2067 29.2399 68.2457C11.0527 67.427 4.17676 51.9884 3.68427 44.6199C3.45757 41.2281 3.76614 32.8188 10.8773 24.6784Z" fill="url(#paint1_linear_258_881)"/>
<path d="M49.6689 1.78423C48.7805 2.80702 46.1718 4.24037 44.3473 8.68482C42.5661 13.0236 44.0582 17.4553 45.0914 19.2595C40.6308 12.5827 42.359 6.69651 42.8853 5.23452C43.4116 3.77253 44.9321 0.848551 46.1601 0.205275C47.1426 -0.309345 47.6221 0.263755 47.7391 0.614633C48.0315 0.302742 48.8268 -0.215778 49.6689 0.205275C50.511 0.626329 50.0198 1.43335 49.6689 1.78423Z" fill="url(#paint2_linear_258_881)"/>
<path d="M10.3307 1.78423C11.2191 2.80702 13.8278 4.24037 15.6524 8.68482C17.4336 13.0236 15.9414 17.4553 14.9083 19.2595C19.3688 12.5827 17.6407 6.69651 17.1144 5.23452C16.588 3.77253 15.0676 0.848551 13.8395 0.205275C12.857 -0.309345 12.3775 0.263755 12.2606 0.614633C11.9682 0.302742 11.1728 -0.215778 10.3307 0.205275C9.48862 0.626329 9.97985 1.43335 10.3307 1.78423Z" fill="url(#paint3_linear_258_881)"/>
<path d="M41.1352 5.9833C40.8902 7.31573 39.3726 9.87631 40.0611 14.6311C40.7332 19.2729 44.2713 22.3304 46.0783 23.3587C38.8426 19.8771 37.338 13.9299 37.0479 12.4033C36.7578 10.8768 36.5805 7.58592 37.311 6.40761C37.8953 5.46496 38.5996 5.71466 38.8787 5.95733C38.9719 5.5401 39.3932 4.68924 40.3324 4.62366C41.2716 4.55808 41.2589 5.50277 41.1352 5.9833Z" fill="url(#paint4_linear_258_881)"/>
<path d="M18.8651 5.9833C19.1101 7.31573 20.6277 9.87631 19.9392 14.6311C19.267 19.2729 15.7289 22.3304 13.922 23.3587C21.1577 19.8771 22.6622 13.9299 22.9523 12.4033C23.2424 10.8768 23.4197 7.58592 22.6893 6.40761C22.1049 5.46496 21.4006 5.71466 21.1215 5.95733C21.0283 5.5401 20.6071 4.68924 19.6679 4.62366C18.7286 4.55808 18.7413 5.50277 18.8651 5.9833Z" fill="url(#paint5_linear_258_881)"/>
<path d="M52.9242 52.5733C58.1171 40.737 51.2672 28.967 47.1932 24.5615C61.6025 54.2224 42.2419 65.8481 30.7604 67.9534C35.9846 67.7585 47.7312 64.4095 52.9242 52.5733Z" fill="url(#paint6_linear_258_881)"/>
<path d="M7.07609 52.5733C1.8831 40.737 8.73301 28.967 12.8071 24.5615C-1.60229 54.2224 17.7584 65.8481 29.2399 67.9534C24.0157 67.7585 12.2691 64.4095 7.07609 52.5733Z" fill="url(#paint7_linear_258_881)"/>
<path d="M36.1841 18.1003C36.1435 18.0253 36.1096 17.9567 36.0822 17.895C36.116 17.964 36.15 18.0324 36.1841 18.1003C36.7214 19.092 38.4356 21.2009 41.8716 23.1582C46.4915 25.7898 47.7416 31.5042 48.129 33.2752C48.512 35.0262 50.2262 38.4668 50.8763 38.902C51.0436 38.9517 51.095 38.9477 50.9945 38.9477C50.9606 38.9477 50.921 38.932 50.8763 38.902C50.1681 38.6917 47.3836 37.5179 45.2635 30.9945C43.7582 26.3628 39.559 24.8263 36.1841 18.1003Z" fill="url(#paint8_linear_258_881)"/>
<path d="M23.8161 18.1003C23.8568 18.0253 23.8907 17.9567 23.9181 17.895C23.8842 17.964 23.8502 18.0324 23.8161 18.1003C23.2788 19.092 21.5647 21.2009 18.1286 23.1582C13.5087 25.7898 12.2587 31.5042 11.8713 33.2752C11.4883 35.0262 9.77402 38.4668 9.12396 38.902C8.95664 38.9517 8.90521 38.9477 9.00579 38.9477C9.03963 38.9477 9.07928 38.932 9.12396 38.902C9.83219 38.6917 12.6167 37.5179 14.7368 30.9945C16.2421 26.3628 20.4412 24.8263 23.8161 18.1003Z" fill="url(#paint9_linear_258_881)"/>
<path d="M21.8165 37.6001H25.8774V38.7463H24.4119V43.6258H23.2247V38.7463H21.8165V37.6001Z" fill="url(#paint10_linear_258_881)"/>
<path d="M32.0909 37.6001V43.6258H30.9038V41.1779H28.2102V43.6258H27.0231V37.6001H28.2102V40.0317H30.9038V37.6001H32.0909Z" fill="url(#paint11_linear_258_881)"/>
<path d="M33.6431 37.6001H37.7531V38.7463H34.8303V40.0317H37.4174V41.1779H34.8303V42.4796H37.8677V43.6258H33.6431V37.6001Z" fill="url(#paint12_linear_258_881)"/>
<path d="M12.499 49.9779C12.499 49.5631 12.5782 49.1701 12.7365 48.7989C12.8947 48.4278 13.1131 48.1003 13.3914 47.8165C13.6752 47.5272 14.0027 47.3007 14.3739 47.137C14.745 46.9732 15.1435 46.8913 15.5692 46.8913C15.9895 46.8913 16.3852 46.9732 16.7563 47.137C17.1275 47.3007 17.455 47.5272 17.7388 47.8165C18.0281 48.1003 18.2519 48.4278 18.4101 48.7989C18.5739 49.1701 18.6558 49.5631 18.6558 49.9779C18.6558 50.4036 18.5739 50.8021 18.4101 51.1732C18.2519 51.5444 18.0281 51.8719 17.7388 52.1557C17.455 52.434 17.1275 52.6524 16.7563 52.8106C16.3852 52.9689 15.9895 53.0481 15.5692 53.0481C15.1435 53.0481 14.745 52.9689 14.3739 52.8106C14.0027 52.6524 13.6752 52.434 13.3914 52.1557C13.1131 51.8719 12.8947 51.5444 12.7365 51.1732C12.5782 50.8021 12.499 50.4036 12.499 49.9779ZM13.7271 49.9779C13.7271 50.2453 13.7735 50.4964 13.8663 50.7311C13.9645 50.9604 14.0982 51.165 14.2674 51.3452C14.4421 51.5198 14.6413 51.6563 14.8651 51.7545C15.0943 51.8528 15.3427 51.9019 15.6101 51.9019C15.8667 51.9019 16.1041 51.8528 16.3224 51.7545C16.5462 51.6563 16.74 51.5198 16.9037 51.3452C17.0675 51.165 17.1957 50.9604 17.2885 50.7311C17.3813 50.4964 17.4277 50.2453 17.4277 49.9779C17.4277 49.705 17.3786 49.4512 17.2803 49.2165C17.1875 48.9818 17.0565 48.7771 16.8873 48.6025C16.7236 48.4223 16.5298 48.2832 16.306 48.1849C16.0823 48.0867 15.8394 48.0375 15.5774 48.0375C15.3154 48.0375 15.0725 48.0867 14.8487 48.1849C14.625 48.2832 14.4285 48.4223 14.2593 48.6025C14.0901 48.7771 13.9591 48.9818 13.8663 49.2165C13.7735 49.4512 13.7271 49.705 13.7271 49.9779Z" fill="url(#paint13_linear_258_881)"/>
<path d="M24.3586 52.4832C24.2931 52.5377 24.1703 52.6114 23.9902 52.7042C23.8155 52.797 23.5999 52.8789 23.3434 52.9498C23.0869 53.0208 22.8031 53.0535 22.492 53.0481C22.0171 53.0372 21.5914 52.9526 21.2148 52.7943C20.8436 52.6305 20.527 52.4095 20.265 52.1311C20.0085 51.8528 19.812 51.5335 19.6756 51.1732C19.5391 50.813 19.4709 50.4282 19.4709 50.0188C19.4709 49.5604 19.5391 49.1401 19.6756 48.758C19.8175 48.3759 20.0167 48.0457 20.2732 47.7674C20.5352 47.489 20.8463 47.2734 21.2066 47.1206C21.5668 46.9678 21.9652 46.8913 22.4019 46.8913C22.8058 46.8913 23.1633 46.9459 23.4744 47.0551C23.7855 47.1642 24.0393 47.2816 24.2358 47.4071L23.7691 48.5288C23.6327 48.4251 23.4498 48.3186 23.2206 48.2095C22.9968 48.0949 22.7376 48.0375 22.4428 48.0375C22.2136 48.0375 21.9925 48.0867 21.7797 48.1849C21.5723 48.2777 21.3867 48.4114 21.2229 48.5861C21.0647 48.7607 20.9391 48.9654 20.8463 49.2001C20.7535 49.4294 20.7072 49.6804 20.7072 49.9533C20.7072 50.2426 20.7481 50.5073 20.83 50.7475C20.9173 50.9876 21.0401 51.1951 21.1984 51.3697C21.3567 51.5389 21.545 51.6699 21.7633 51.7627C21.9871 51.8555 22.2381 51.9019 22.5165 51.9019C22.8385 51.9019 23.1142 51.85 23.3434 51.7463C23.5727 51.6426 23.7473 51.5335 23.8674 51.4188L24.3586 52.4832Z" fill="url(#paint14_linear_258_881)"/>
<path d="M25.5479 46.9568H29.6579V48.103H26.7351V49.3884H29.3222V50.5346H26.7351V51.8364H29.7725V52.9826H25.5479V46.9568Z" fill="url(#paint15_linear_258_881)"/>
<path d="M30.3212 52.9826L33.0393 46.7194H33.1048L35.8229 52.9826H34.4475L32.7118 48.5779L33.5715 47.9884L31.4919 52.9826H30.3212ZM32.1796 50.8048H33.989L34.4066 51.8036H31.8112L32.1796 50.8048Z" fill="url(#paint16_linear_258_881)"/>
<path d="M42.0967 53.2282L37.5282 49.1019L37.8803 49.2984L37.9048 52.9826H36.7013V46.7194H36.7504L41.2206 50.8294L40.9586 50.7147L40.9341 46.9568H42.1294V53.2282H42.0967Z" fill="url(#paint17_linear_258_881)"/>
<path d="M46.8987 48.4142C46.6695 48.2886 46.4348 48.1849 46.1946 48.103C45.9599 48.0212 45.7389 47.9802 45.5315 47.9802C45.275 47.9802 45.073 48.0321 44.9256 48.1358C44.7783 48.2395 44.7046 48.395 44.7046 48.6025C44.7046 48.7444 44.7592 48.8726 44.8683 48.9873C44.9829 49.0964 45.1276 49.1947 45.3022 49.282C45.4824 49.3693 45.6679 49.4485 45.859 49.5194C46.0336 49.5849 46.2056 49.6641 46.3748 49.7568C46.5494 49.8442 46.705 49.9561 46.8414 50.0925C46.9779 50.2235 47.087 50.39 47.1689 50.5919C47.2508 50.7884 47.2917 51.0313 47.2917 51.3206C47.2917 51.6262 47.2126 51.9101 47.0543 52.1721C46.896 52.434 46.664 52.6469 46.3584 52.8106C46.0527 52.9689 45.6761 53.0481 45.2286 53.0481C44.9993 53.0481 44.7646 53.0262 44.5245 52.9826C44.2898 52.9335 44.0578 52.8625 43.8286 52.7697C43.5993 52.6715 43.3783 52.5487 43.1654 52.4013L43.6894 51.4761C43.8313 51.5798 43.9841 51.6726 44.1479 51.7545C44.3171 51.8309 44.4863 51.891 44.6555 51.9346C44.8247 51.9783 44.9802 52.0001 45.1221 52.0001C45.264 52.0001 45.4059 51.981 45.5479 51.9428C45.6952 51.8991 45.8153 51.8282 45.9081 51.7299C46.0063 51.6317 46.0555 51.4952 46.0555 51.3206C46.0555 51.2005 46.0145 51.0913 45.9327 50.9931C45.8562 50.8949 45.7498 50.8048 45.6134 50.7229C45.4824 50.6411 45.3377 50.5701 45.1794 50.5101C44.9939 50.4391 44.8028 50.3572 44.6063 50.2644C44.4098 50.1717 44.2243 50.0598 44.0496 49.9288C43.8804 49.7923 43.7412 49.6258 43.6321 49.4294C43.5284 49.2274 43.4765 48.9818 43.4765 48.6925C43.4765 48.3432 43.5529 48.0403 43.7057 47.7837C43.864 47.5272 44.0851 47.3253 44.3689 47.1779C44.6527 47.0251 44.9802 46.9405 45.3514 46.9241C45.8371 46.9241 46.2301 46.9814 46.5303 47.096C46.836 47.2106 47.1089 47.3471 47.349 47.5054L46.8987 48.4142Z" fill="url(#paint18_linear_258_881)"/>
<path d="M51.8548 1.6015C47.5574 5.05946 50.0361 13.7512 51.8548 17.3099C48.9222 10.7137 51.0673 3.72661 54.7875 2.41749C57.1063 1.6015 59.7661 2.21352 59.7661 4.45758C61.1984 1.26149 55.7423 -1.5266 51.8548 1.6015Z" fill="url(#paint19_linear_258_881)"/>
<path d="M8.14524 1.6015C12.4426 5.05946 9.96393 13.7512 8.14524 17.3099C11.0779 10.7137 8.93273 3.72661 5.2126 2.41749C2.89377 1.6015 0.233922 2.21352 0.233922 4.45758C-1.19829 1.26149 4.25779 -1.5266 8.14524 1.6015Z" fill="url(#paint20_linear_258_881)"/>
<path d="M56.9103 4.435C57.4432 3.42011 56.4378 2.65683 55.0879 2.65683C56.5053 2.25088 57.8819 2.3862 58.3953 3.75841C58.7254 4.64079 58.0578 5.85584 56.9103 5.72052C55.9924 5.61227 55.4479 4.8184 55.2904 4.435C55.2904 4.435 56.3775 5.44989 56.9103 4.435Z" fill="url(#paint21_linear_258_881)"/>
<path d="M3.08979 4.435C2.55691 3.42011 3.56227 2.65683 4.91223 2.65683C3.49478 2.25088 2.11819 2.3862 1.60484 3.75841C1.27473 4.64079 1.94233 5.85584 3.08979 5.72052C4.00776 5.61227 4.55224 4.8184 4.70974 4.435C4.70974 4.435 3.62267 5.44989 3.08979 4.435Z" fill="url(#paint22_linear_258_881)"/>
<defs>
<linearGradient id="paint0_linear_258_881" x1="48.0703" y1="13.9181" x2="53.7429" y2="56.1404" gradientUnits="userSpaceOnUse">
<stop stop-color="#225BBF"/>
<stop offset="0.993162" stop-color="#0F396A"/>
</linearGradient>
<linearGradient id="paint1_linear_258_881" x1="11.9299" y1="13.9181" x2="6.25738" y2="56.1404" gradientUnits="userSpaceOnUse">
<stop stop-color="#225BBF"/>
<stop offset="0.993162" stop-color="#0F396A"/>
</linearGradient>
<linearGradient id="paint2_linear_258_881" x1="44.4443" y1="2.92398" x2="43.7425" y2="16.2573" gradientUnits="userSpaceOnUse">
<stop stop-color="#225BBF"/>
<stop offset="1" stop-color="#0F396A"/>
</linearGradient>
<linearGradient id="paint3_linear_258_881" x1="15.5553" y1="2.92398" x2="16.2571" y2="16.2573" gradientUnits="userSpaceOnUse">
<stop stop-color="#225BBF"/>
<stop offset="1" stop-color="#0F396A"/>
</linearGradient>
<linearGradient id="paint4_linear_258_881" x1="37.1753" y1="6.24929" x2="44.1522" y2="22.924" gradientUnits="userSpaceOnUse">
<stop stop-color="#225BBF"/>
<stop offset="1" stop-color="#0F396A"/>
</linearGradient>
<linearGradient id="paint5_linear_258_881" x1="22.8249" y1="6.24929" x2="15.8481" y2="22.924" gradientUnits="userSpaceOnUse">
<stop stop-color="#225BBF"/>
<stop offset="1" stop-color="#0F396A"/>
</linearGradient>
<linearGradient id="paint6_linear_258_881" x1="57.6196" y1="36.3744" x2="47.0933" y2="59.3569" gradientUnits="userSpaceOnUse">
<stop stop-color="#225BBF"/>
<stop offset="1" stop-color="#0F396A"/>
</linearGradient>
<linearGradient id="paint7_linear_258_881" x1="2.38066" y1="36.3744" x2="12.907" y2="59.3569" gradientUnits="userSpaceOnUse">
<stop stop-color="#225BBF"/>
<stop offset="1" stop-color="#0F396A"/>
</linearGradient>
<linearGradient id="paint8_linear_258_881" x1="40.3512" y1="25.088" x2="48.4214" y2="38.0705" gradientUnits="userSpaceOnUse">
<stop stop-color="#225BBF"/>
<stop offset="1" stop-color="#0F396A"/>
</linearGradient>
<linearGradient id="paint9_linear_258_881" x1="19.6491" y1="25.088" x2="11.5789" y2="38.0705" gradientUnits="userSpaceOnUse">
<stop stop-color="#225BBF"/>
<stop offset="1" stop-color="#0F396A"/>
</linearGradient>
<linearGradient id="paint10_linear_258_881" x1="29.8246" y1="38.4796" x2="29.8246" y2="55.5557" gradientUnits="userSpaceOnUse">
<stop stop-color="#225BBF"/>
<stop offset="1" stop-color="#0F396A"/>
</linearGradient>
<linearGradient id="paint11_linear_258_881" x1="29.8246" y1="38.4796" x2="29.8246" y2="55.5557" gradientUnits="userSpaceOnUse">
<stop stop-color="#225BBF"/>
<stop offset="1" stop-color="#0F396A"/>
</linearGradient>
<linearGradient id="paint12_linear_258_881" x1="29.8246" y1="38.4796" x2="29.8246" y2="55.5557" gradientUnits="userSpaceOnUse">
<stop stop-color="#225BBF"/>
<stop offset="1" stop-color="#0F396A"/>
</linearGradient>
<linearGradient id="paint13_linear_258_881" x1="29.8246" y1="38.4796" x2="29.8246" y2="55.5557" gradientUnits="userSpaceOnUse">
<stop stop-color="#225BBF"/>
<stop offset="1" stop-color="#0F396A"/>
</linearGradient>
<linearGradient id="paint14_linear_258_881" x1="29.8246" y1="38.4796" x2="29.8246" y2="55.5557" gradientUnits="userSpaceOnUse">
<stop stop-color="#225BBF"/>
<stop offset="1" stop-color="#0F396A"/>
</linearGradient>
<linearGradient id="paint15_linear_258_881" x1="29.8246" y1="38.4796" x2="29.8246" y2="55.5557" gradientUnits="userSpaceOnUse">
<stop stop-color="#225BBF"/>
<stop offset="1" stop-color="#0F396A"/>
</linearGradient>
<linearGradient id="paint16_linear_258_881" x1="29.8246" y1="38.4796" x2="29.8246" y2="55.5557" gradientUnits="userSpaceOnUse">
<stop stop-color="#225BBF"/>
<stop offset="1" stop-color="#0F396A"/>
</linearGradient>
<linearGradient id="paint17_linear_258_881" x1="29.8246" y1="38.4796" x2="29.8246" y2="55.5557" gradientUnits="userSpaceOnUse">
<stop stop-color="#225BBF"/>
<stop offset="1" stop-color="#0F396A"/>
</linearGradient>
<linearGradient id="paint18_linear_258_881" x1="29.8246" y1="38.4796" x2="29.8246" y2="55.5557" gradientUnits="userSpaceOnUse">
<stop stop-color="#225BBF"/>
<stop offset="1" stop-color="#0F396A"/>
</linearGradient>
<linearGradient id="paint19_linear_258_881" x1="54.7369" y1="0.233887" x2="49.4737" y2="12.8655" gradientUnits="userSpaceOnUse">
<stop stop-color="#225BBF"/>
<stop offset="1" stop-color="#0F396A"/>
</linearGradient>
<linearGradient id="paint20_linear_258_881" x1="5.2632" y1="0.233887" x2="10.5264" y2="12.8655" gradientUnits="userSpaceOnUse">
<stop stop-color="#225BBF"/>
<stop offset="1" stop-color="#0F396A"/>
</linearGradient>
<linearGradient id="paint21_linear_258_881" x1="56.7838" y1="2.45605" x2="56.7838" y2="5.73091" gradientUnits="userSpaceOnUse">
<stop stop-color="#0F396A"/>
<stop offset="1" stop-color="#225BBF"/>
</linearGradient>
<linearGradient id="paint22_linear_258_881" x1="3.21632" y1="2.45605" x2="3.21632" y2="5.73091" gradientUnits="userSpaceOnUse">
<stop stop-color="#0F396A"/>
<stop offset="1" stop-color="#225BBF"/>
</linearGradient>
</defs>
</svg>
